<svg xmlns="http://www.w3.org/2000/svg" width="79" height="76" viewBox="0 0 79 76">
  <defs>
    <style>
      .cls-1 {
        fill: #3c3c3c;
        fill-rule: evenodd;
      }
    </style>
  </defs>
  <path id="development-icon.svg" class="cls-1" d="M995.921,2881H921.078a2.09,2.09,0,0,1-2.08-2.1v-71.81a2.09,2.09,0,0,1,2.08-2.1h74.843a2.09,2.09,0,0,1,2.079,2.1v71.81A2.09,2.09,0,0,1,995.921,2881Zm-2.079-71.81H923.156v6.69h70.686v-6.69Zm0,10.89H923.156v56.72h70.686v-56.72Zm-47.094,19.54a1.82,1.82,0,0,1,2.573,0,1.851,1.851,0,0,1,0,2.6l-4.364,4.41,4.374,4.41a1.853,1.853,0,0,1,0,2.6,1.8,1.8,0,0,1-2.572,0l-5.66-5.71a1.851,1.851,0,0,1,0-2.6Zm12-1.77a1.818,1.818,0,0,1,2.212-1.33,1.842,1.842,0,0,1,1.314,2.24l-4.624,18.28a1.821,1.821,0,0,1-1.761,1.38,1.767,1.767,0,0,1-.452-0.06,1.835,1.835,0,0,1-1.312-2.23Zm8.914,1.77a1.819,1.819,0,0,1,2.572,0l5.66,5.72a1.837,1.837,0,0,1,0,2.59l-5.651,5.71a1.8,1.8,0,0,1-2.571,0,1.851,1.851,0,0,1,0-2.6l4.365-4.4-4.375-4.42A1.853,1.853,0,0,1,967.666,2839.62Zm-39.485-28.55a1.47,1.47,0,1,1-1.455,1.47A1.463,1.463,0,0,1,928.181,2811.07Zm4.35,0a1.465,1.465,0,1,1-1.453,1.47A1.463,1.463,0,0,1,932.531,2811.07Zm4.35,0a1.47,1.47,0,1,1-1.454,1.47A1.463,1.463,0,0,1,936.881,2811.07Z" transform="translate(-919 -2805)"/>
</svg>
